<svg width="32" height="24" viewBox="0 0 32 24" fill="none" xmlns="http://www.w3.org/2000/svg">
<path fill-rule="evenodd" clip-rule="evenodd" d="M11.9998 3.07946L9.78697 5.36896C9.55145 5.61265 9.22707 5.75026 8.88816 5.75026H5.74977V8.88865C5.74977 9.22755 5.61216 9.55193 5.36847 9.78746L3.07897 12.0003L5.36847 14.2131C5.61216 14.4486 5.74977 14.773 5.74977 15.1119V18.2503H8.88816C9.22707 18.2503 9.55145 18.3879 9.78697 18.6316L11.9998 20.9211L14.2126 18.6316C14.4481 18.3879 14.7725 18.2503 15.1114 18.2503H18.2498V15.1119C18.2498 14.773 18.3874 14.4486 18.6311 14.2131L20.9206 12.0003L18.6311 9.78747C18.3874 9.55194 18.2498 9.22756 18.2498 8.88865V5.75026H15.1114C14.7725 5.75026 14.4481 5.61265 14.2126 5.36896L11.9998 3.07946ZM11.101 1.85103C11.5923 1.34263 12.4072 1.34263 12.8986 1.85103L15.2174 4.25026H18.4998C19.1901 4.25026 19.7498 4.8099 19.7498 5.50026V8.7826L22.149 11.1014C22.6574 11.5928 22.6574 12.4077 22.149 12.8991L19.7498 15.2179V18.5003C19.7498 19.1906 19.1901 19.7503 18.4998 19.7503H15.2174L12.8986 22.1495C12.4072 22.6579 11.5923 22.6579 11.101 22.1495L8.7821 19.7503H5.49977C4.80942 19.7503 4.24977 19.1906 4.24977 18.5003V15.2179L1.85054 12.8991C1.34214 12.4077 1.34214 11.5928 1.85054 11.1014L4.24977 8.78259V5.50026C4.24977 4.8099 4.80942 4.25026 5.49977 4.25026H8.7821L11.101 1.85103Z" fill="black"/>
<path fill-rule="evenodd" clip-rule="evenodd" d="M7.24977 12.0003C7.24977 9.37691 9.37642 7.25026 11.9998 7.25026C14.6231 7.25026 16.7498 9.37691 16.7498 12.0003C16.7498 14.6236 14.6231 16.7503 11.9998 16.7503C9.37642 16.7503 7.24977 14.6236 7.24977 12.0003ZM11.9998 8.75026C10.2048 8.75026 8.74977 10.2053 8.74977 12.0003C8.74977 13.7952 10.2048 15.2503 11.9998 15.2503C13.7947 15.2503 15.2498 13.7952 15.2498 12.0003C15.2498 10.2053 13.7947 8.75026 11.9998 8.75026Z" fill="black"/>
<path fill-rule="evenodd" clip-rule="evenodd" d="M11.9998 3.07946L9.78697 5.36896C9.55145 5.61265 9.22707 5.75026 8.88816 5.75026H5.74977V8.88865C5.74977 9.22755 5.61216 9.55193 5.36847 9.78746L3.07897 12.0003L5.36847 14.2131C5.61216 14.4486 5.74977 14.773 5.74977 15.1119V18.2503H8.88816C9.22707 18.2503 9.55145 18.3879 9.78697 18.6316L11.9998 20.9211L14.2126 18.6316C14.4481 18.3879 14.7725 18.2503 15.1114 18.2503H18.2498V15.1119C18.2498 14.773 18.3874 14.4486 18.6311 14.2131L20.9206 12.0003L18.6311 9.78747C18.3874 9.55194 18.2498 9.22756 18.2498 8.88865V5.75026H15.1114C14.7725 5.75026 14.4481 5.61265 14.2126 5.36896L11.9998 3.07946ZM11.101 1.85103C11.5923 1.34263 12.4072 1.34263 12.8986 1.85103L15.2174 4.25026H18.4998C19.1901 4.25026 19.7498 4.8099 19.7498 5.50026V8.7826L22.149 11.1014C22.6574 11.5928 22.6574 12.4077 22.149 12.8991L19.7498 15.2179V18.5003C19.7498 19.1906 19.1901 19.7503 18.4998 19.7503H15.2174L12.8986 22.1495C12.4072 22.6579 11.5923 22.6579 11.101 22.1495L8.7821 19.7503H5.49977C4.80942 19.7503 4.24977 19.1906 4.24977 18.5003V15.2179L1.85054 12.8991C1.34214 12.4077 1.34214 11.5928 1.85054 11.1014L4.24977 8.78259V5.50026C4.24977 4.8099 4.80942 4.25026 5.49977 4.25026H8.7821L11.101 1.85103Z" stroke="black" stroke-width="0.2"/>
<path fill-rule="evenodd" clip-rule="evenodd" d="M7.24977 12.0003C7.24977 9.37691 9.37642 7.25026 11.9998 7.25026C14.6231 7.25026 16.7498 9.37691 16.7498 12.0003C16.7498 14.6236 14.6231 16.7503 11.9998 16.7503C9.37642 16.7503 7.24977 14.6236 7.24977 12.0003ZM11.9998 8.75026C10.2048 8.75026 8.74977 10.2053 8.74977 12.0003C8.74977 13.7952 10.2048 15.2503 11.9998 15.2503C13.7947 15.2503 15.2498 13.7952 15.2498 12.0003C15.2498 10.2053 13.7947 8.75026 11.9998 8.75026Z" stroke="black" stroke-width="0.2"/>
</svg>
